<svg id="visual" viewBox="0 0 500 400" width="500" height="400" xmlns="http://www.w3.org/2000/svg" xmlns:xlink="http://www.w3.org/1999/xlink" version="1.1"><g stroke-width="1" stroke-linejoin="bevel"><path d="M240.2 170L285.8 176L271.8 156Z" fill="#3c5c2c" stroke="#3c5c2c"></path><path d="M244.2 234L297.3 190L285.8 176Z" fill="#486c33" stroke="#486c33"></path><path d="M285.8 176L293.8 107L271.8 156Z" fill="#263e1e" stroke="#263e1e"></path><path d="M240.2 170L244.2 234L285.8 176Z" fill="#3c5c2c" stroke="#3c5c2c"></path><path d="M244.2 234L301.3 232L297.3 190Z" fill="#314d25" stroke="#314d25"></path><path d="M240.2 170L214.2 229L244.2 234Z" fill="#314d25" stroke="#314d25"></path><path d="M356.3 165L293.8 107L285.8 176Z" fill="#314d25" stroke="#314d25"></path><path d="M271.8 156L192.2 90L240.2 170Z" fill="#081603" stroke="#081603"></path><path d="M356.3 165L285.8 176L297.3 190Z" fill="#3c5c2c" stroke="#3c5c2c"></path><path d="M214.2 229L244.8 269L244.2 234Z" fill="#081603" stroke="#081603"></path><path d="M244.2 234L244.8 269L301.3 232Z" fill="#081603" stroke="#081603"></path><path d="M378.9 224L356.3 165L297.3 190Z" fill="#6f9c47" stroke="#6f9c47"></path><path d="M192.2 90L164.7 169L240.2 170Z" fill="#6f9c47" stroke="#6f9c47"></path><path d="M240.2 170L164.7 169L214.2 229Z" fill="#1d3017" stroke="#1d3017"></path><path d="M214.2 229L186.2 263L244.8 269Z" fill="#142310" stroke="#142310"></path><path d="M376.9 111L296.3 84L293.8 107Z" fill="#314d25" stroke="#314d25"></path><path d="M293.8 107L263.8 73L271.8 156Z" fill="#628c40" stroke="#628c40"></path><path d="M296.3 84L263.8 73L293.8 107Z" fill="#7ead4d" stroke="#7ead4d"></path><path d="M263.8 73L192.2 90L271.8 156Z" fill="#628c40" stroke="#628c40"></path><path d="M164.7 169L186.2 263L214.2 229Z" fill="#7ead4d" stroke="#7ead4d"></path><path d="M263.8 73L201.7 74L192.2 90Z" fill="#314d25" stroke="#314d25"></path><path d="M383.9 283L378.9 224L301.3 232Z" fill="#1d3017" stroke="#1d3017"></path><path d="M301.3 232L378.9 224L297.3 190Z" fill="#314d25" stroke="#314d25"></path><path d="M414.4 168L376.9 111L356.3 165Z" fill="#547b39" stroke="#547b39"></path><path d="M356.3 165L376.9 111L293.8 107Z" fill="#6f9c47" stroke="#6f9c47"></path><path d="M300.3 28L251.2 26L263.8 73Z" fill="#6f9c47" stroke="#6f9c47"></path><path d="M192.2 90L147.7 110L164.7 169Z" fill="#628c40" stroke="#628c40"></path><path d="M123.1 269L158.7 288L186.2 263Z" fill="#486c33" stroke="#486c33"></path><path d="M149.1 91L147.7 110L192.2 90Z" fill="#263e1e" stroke="#263e1e"></path><path d="M147.7 110L128.7 146L164.7 169Z" fill="#628c40" stroke="#628c40"></path><path d="M201.7 74L149.1 91L192.2 90Z" fill="#486c33" stroke="#486c33"></path><path d="M71.6 139L89.1 167L128.7 146Z" fill="#3c5c2c" stroke="#3c5c2c"></path><path d="M158.7 288L174.7 295L186.2 263Z" fill="#628c40" stroke="#628c40"></path><path d="M186.2 263L184.7 311L244.8 269Z" fill="#142310" stroke="#142310"></path><path d="M244.8 269L299.3 328L301.3 232Z" fill="#6f9c47" stroke="#6f9c47"></path><path d="M262.8 338L270.8 324L244.8 269Z" fill="#314d25" stroke="#314d25"></path><path d="M123.1 269L186.2 263L164.7 169Z" fill="#7ead4d" stroke="#7ead4d"></path><path d="M300.3 28L263.8 73L296.3 84Z" fill="#628c40" stroke="#628c40"></path><path d="M263.8 73L251.2 26L201.7 74Z" fill="#314d25" stroke="#314d25"></path><path d="M201.7 74L173.7 0L149.1 91Z" fill="#314d25" stroke="#314d25"></path><path d="M378.9 224L414.4 168L356.3 165Z" fill="#628c40" stroke="#628c40"></path><path d="M380.9 37L300.3 28L296.3 84Z" fill="#263e1e" stroke="#263e1e"></path><path d="M158.7 288L184.7 311L174.7 295Z" fill="#081603" stroke="#081603"></path><path d="M174.7 295L184.7 311L186.2 263Z" fill="#263e1e" stroke="#263e1e"></path><path d="M270.8 324L299.3 328L244.8 269Z" fill="#486c33" stroke="#486c33"></path><path d="M184.7 311L262.8 338L244.8 269Z" fill="#314d25" stroke="#314d25"></path><path d="M270.8 324L262.8 338L299.3 328Z" fill="#1d3017" stroke="#1d3017"></path><path d="M299.3 328L383.9 283L301.3 232Z" fill="#547b39" stroke="#547b39"></path><path d="M378.9 224L451.4 271L414.4 168Z" fill="#6f9c47" stroke="#6f9c47"></path><path d="M88.6 237L123.1 269L164.7 169Z" fill="#628c40" stroke="#628c40"></path><path d="M91.1 312L193.2 346L184.7 311Z" fill="#142310" stroke="#142310"></path><path d="M414.4 168L405.9 90L376.9 111Z" fill="#081603" stroke="#081603"></path><path d="M376.9 111L380.9 37L296.3 84Z" fill="#628c40" stroke="#628c40"></path><path d="M71.6 139L128.7 146L72.1 129Z" fill="#7ead4d" stroke="#7ead4d"></path><path d="M128.7 146L89.1 167L164.7 169Z" fill="#6f9c47" stroke="#6f9c47"></path><path d="M300.3 28L251.8 0L251.2 26Z" fill="#142310" stroke="#142310"></path><path d="M251.2 26L199.2 0L201.7 74Z" fill="#3c5c2c" stroke="#3c5c2c"></path><path d="M91.1 312L184.7 311L158.7 288Z" fill="#142310" stroke="#142310"></path><path d="M184.7 311L193.2 346L262.8 338Z" fill="#142310" stroke="#142310"></path><path d="M405.9 90L380.9 37L376.9 111Z" fill="#3c5c2c" stroke="#3c5c2c"></path><path d="M300.3 28L362.3 0L251.8 0Z" fill="#3c5c2c" stroke="#3c5c2c"></path><path d="M89.1 167L88.6 237L164.7 169Z" fill="#1d3017" stroke="#1d3017"></path><path d="M123.1 269L91.1 312L158.7 288Z" fill="#142310" stroke="#142310"></path><path d="M251.8 0L199.2 0L251.2 26Z" fill="#3c5c2c" stroke="#3c5c2c"></path><path d="M72.1 129L128.7 146L147.7 110Z" fill="#547b39" stroke="#547b39"></path><path d="M414.4 168L430.4 88L405.9 90Z" fill="#547b39" stroke="#547b39"></path><path d="M405.9 90L434.4 21L380.9 37Z" fill="#6f9c47" stroke="#6f9c47"></path><path d="M72.1 129L147.7 110L65.6 120Z" fill="#7ead4d" stroke="#7ead4d"></path><path d="M89.1 167L53.6 224L88.6 237Z" fill="#628c40" stroke="#628c40"></path><path d="M65.6 120L147.7 110L149.1 91Z" fill="#081603" stroke="#081603"></path><path d="M398.9 344L410.9 323L383.9 283Z" fill="#547b39" stroke="#547b39"></path><path d="M262.8 338L313.3 369L299.3 328Z" fill="#263e1e" stroke="#263e1e"></path><path d="M281.8 400L313.3 369L262.8 338Z" fill="#7ead4d" stroke="#7ead4d"></path><path d="M199.2 0L173.7 0L201.7 74Z" fill="#081603" stroke="#081603"></path><path d="M53.6 224L78.1 263L88.6 237Z" fill="#142310" stroke="#142310"></path><path d="M88.6 237L78.1 263L123.1 269Z" fill="#6f9c47" stroke="#6f9c47"></path><path d="M381.9 0L362.3 0L380.9 37Z" fill="#3c5c2c" stroke="#3c5c2c"></path><path d="M380.9 37L362.3 0L300.3 28Z" fill="#7ead4d" stroke="#7ead4d"></path><path d="M72.1 129L65.6 120L71.6 139Z" fill="#547b39" stroke="#547b39"></path><path d="M71.6 139L53.6 224L89.1 167Z" fill="#7ead4d" stroke="#7ead4d"></path><path d="M74.1 28L65.6 120L149.1 91Z" fill="#081603" stroke="#081603"></path><path d="M398.9 344L383.9 283L299.3 328Z" fill="#263e1e" stroke="#263e1e"></path><path d="M383.9 283L451.4 271L378.9 224Z" fill="#547b39" stroke="#547b39"></path><path d="M414.4 168L468.4 116L430.4 88Z" fill="#1d3017" stroke="#1d3017"></path><path d="M440.4 302L451.4 271L383.9 283Z" fill="#142310" stroke="#142310"></path><path d="M173.7 0L145.1 0L149.1 91Z" fill="#547b39" stroke="#547b39"></path><path d="M434.4 21L381.9 0L380.9 37Z" fill="#547b39" stroke="#547b39"></path><path d="M0 139L53.6 224L71.6 139Z" fill="#7ead4d" stroke="#7ead4d"></path><path d="M500 166L468.4 116L414.4 168Z" fill="#081603" stroke="#081603"></path><path d="M430.4 88L434.4 21L405.9 90Z" fill="#1d3017" stroke="#1d3017"></path><path d="M313.3 369L398.9 344L299.3 328Z" fill="#3c5c2c" stroke="#3c5c2c"></path><path d="M410.9 323L440.4 302L383.9 283Z" fill="#486c33" stroke="#486c33"></path><path d="M429.4 319L440.4 302L410.9 323Z" fill="#7ead4d" stroke="#7ead4d"></path><path d="M78.1 263L91.1 312L123.1 269Z" fill="#1d3017" stroke="#1d3017"></path><path d="M64.6 314L91.1 312L78.1 263Z" fill="#3c5c2c" stroke="#3c5c2c"></path><path d="M398.9 344L429.4 319L410.9 323Z" fill="#628c40" stroke="#628c40"></path><path d="M220.2 400L262.8 338L193.2 346Z" fill="#142310" stroke="#142310"></path><path d="M220.2 400L281.8 400L262.8 338Z" fill="#628c40" stroke="#628c40"></path><path d="M313.3 369L341.3 400L398.9 344Z" fill="#1d3017" stroke="#1d3017"></path><path d="M138.7 400L220.2 400L193.2 346Z" fill="#314d25" stroke="#314d25"></path><path d="M500 83L434.4 21L430.4 88Z" fill="#081603" stroke="#081603"></path><path d="M281.8 400L341.3 400L313.3 369Z" fill="#6f9c47" stroke="#6f9c47"></path><path d="M398.9 344L424.4 400L429.4 319Z" fill="#263e1e" stroke="#263e1e"></path><path d="M500 236L500 166L414.4 168Z" fill="#6f9c47" stroke="#6f9c47"></path><path d="M468.4 116L500 83L430.4 88Z" fill="#7ead4d" stroke="#7ead4d"></path><path d="M500 236L414.4 168L451.4 271Z" fill="#1d3017" stroke="#1d3017"></path><path d="M0 276L64.6 314L78.1 263Z" fill="#3c5c2c" stroke="#3c5c2c"></path><path d="M91.1 312L138.7 400L193.2 346Z" fill="#6f9c47" stroke="#6f9c47"></path><path d="M145.1 0L74.1 28L149.1 91Z" fill="#3c5c2c" stroke="#3c5c2c"></path><path d="M65.6 120L0 139L71.6 139Z" fill="#7ead4d" stroke="#7ead4d"></path><path d="M64.6 314L78.6 335L91.1 312Z" fill="#6f9c47" stroke="#6f9c47"></path><path d="M500 286L451.4 271L440.4 302Z" fill="#628c40" stroke="#628c40"></path><path d="M500 286L500 236L451.4 271Z" fill="#3c5c2c" stroke="#3c5c2c"></path><path d="M500 166L500 117L468.4 116Z" fill="#547b39" stroke="#547b39"></path><path d="M341.3 400L381.9 400L398.9 344Z" fill="#314d25" stroke="#314d25"></path><path d="M500 377L500 286L440.4 302Z" fill="#7ead4d" stroke="#7ead4d"></path><path d="M500 117L500 89L468.4 116Z" fill="#547b39" stroke="#547b39"></path><path d="M78.6 335L138.7 400L91.1 312Z" fill="#314d25" stroke="#314d25"></path><path d="M500 89L500 83L468.4 116Z" fill="#486c33" stroke="#486c33"></path><path d="M145.1 0L65.6 13L74.1 28Z" fill="#314d25" stroke="#314d25"></path><path d="M0 105L0 139L65.6 120Z" fill="#314d25" stroke="#314d25"></path><path d="M500 0L448.4 0L434.4 21Z" fill="#142310" stroke="#142310"></path><path d="M434.4 21L448.4 0L381.9 0Z" fill="#6f9c47" stroke="#6f9c47"></path><path d="M500 377L440.4 302L429.4 319Z" fill="#6f9c47" stroke="#6f9c47"></path><path d="M0 105L65.6 120L0 39Z" fill="#314d25" stroke="#314d25"></path><path d="M53.6 224L0 276L78.1 263Z" fill="#081603" stroke="#081603"></path><path d="M0 139L0 239L53.6 224Z" fill="#314d25" stroke="#314d25"></path><path d="M57.6 400L81.1 400L78.6 335Z" fill="#142310" stroke="#142310"></path><path d="M0 39L65.6 120L74.1 28Z" fill="#7ead4d" stroke="#7ead4d"></path><path d="M381.9 400L424.4 400L398.9 344Z" fill="#6f9c47" stroke="#6f9c47"></path><path d="M0 239L0 276L53.6 224Z" fill="#547b39" stroke="#547b39"></path><path d="M78.6 335L81.1 400L138.7 400Z" fill="#314d25" stroke="#314d25"></path><path d="M57.6 400L78.6 335L0 331Z" fill="#486c33" stroke="#486c33"></path><path d="M500 83L500 0L434.4 21Z" fill="#628c40" stroke="#628c40"></path><path d="M65.6 13L0 39L74.1 28Z" fill="#6f9c47" stroke="#6f9c47"></path><path d="M145.1 0L24.6 0L65.6 13Z" fill="#486c33" stroke="#486c33"></path><path d="M65.6 13L24.6 0L0 39Z" fill="#263e1e" stroke="#263e1e"></path><path d="M0 331L78.6 335L64.6 314Z" fill="#1d3017" stroke="#1d3017"></path><path d="M0 276L0 330L64.6 314Z" fill="#1d3017" stroke="#1d3017"></path><path d="M0 330L0 331L64.6 314Z" fill="#7ead4d" stroke="#7ead4d"></path><path d="M424.4 400L500 377L429.4 319Z" fill="#1d3017" stroke="#1d3017"></path><path d="M24.6 0L0 0L0 39Z" fill="#1d3017" stroke="#1d3017"></path><path d="M424.4 400L500 400L500 377Z" fill="#6f9c47" stroke="#6f9c47"></path><path d="M0 331L0 400L57.6 400Z" fill="#7ead4d" stroke="#7ead4d"></path></g></svg>