<svg id="visual" viewBox="0 0 500 400" width="500" height="400" xmlns="http://www.w3.org/2000/svg" xmlns:xlink="http://www.w3.org/1999/xlink" version="1.1"><g stroke-width="1" stroke-linejoin="bevel"><path d="M262.8 184L229.2 177L227.2 229Z" fill="#254c67" stroke="#254c67"></path><path d="M227.2 229L247.8 266L262.8 184Z" fill="#1e3549" stroke="#1e3549"></path><path d="M184.2 137L190.7 163L185.7 132Z" fill="#285877" stroke="#285877"></path><path d="M229.2 177L190.7 163L227.2 229Z" fill="#296486" stroke="#296486"></path><path d="M283.8 278L302.3 176L262.8 184Z" fill="#0e1520" stroke="#0e1520"></path><path d="M262.8 184L255.8 122L229.2 177Z" fill="#141f2d" stroke="#141f2d"></path><path d="M247.8 266L283.8 278L262.8 184Z" fill="#224058" stroke="#224058"></path><path d="M302.3 176L255.8 122L262.8 184Z" fill="#297ea6" stroke="#297ea6"></path><path d="M258.2 281L283.8 278L247.8 266Z" fill="#254c67" stroke="#254c67"></path><path d="M185.7 132L190.7 163L229.2 177Z" fill="#1e3549" stroke="#1e3549"></path><path d="M138.7 162L152.7 221L190.7 163Z" fill="#010713" stroke="#010713"></path><path d="M190.7 163L152.7 221L227.2 229Z" fill="#224058" stroke="#224058"></path><path d="M227.2 229L165.7 301L247.8 266Z" fill="#141f2d" stroke="#141f2d"></path><path d="M247.8 266L230.2 325L258.2 281Z" fill="#224058" stroke="#224058"></path><path d="M255.8 122L185.7 132L229.2 177Z" fill="#2a7196" stroke="#2a7196"></path><path d="M184.2 137L138.7 162L190.7 163Z" fill="#296486" stroke="#296486"></path><path d="M343.3 260L344.3 197L302.3 176Z" fill="#0e1520" stroke="#0e1520"></path><path d="M302.3 176L305.8 70L255.8 122Z" fill="#141f2d" stroke="#141f2d"></path><path d="M137.1 92L138.7 162L184.2 137Z" fill="#254c67" stroke="#254c67"></path><path d="M283.8 278L343.3 260L302.3 176Z" fill="#297ea6" stroke="#297ea6"></path><path d="M218.2 326L230.2 325L247.8 266Z" fill="#141f2d" stroke="#141f2d"></path><path d="M258.2 281L313.8 319L283.8 278Z" fill="#1e3549" stroke="#1e3549"></path><path d="M283.8 278L350.3 298L343.3 260Z" fill="#141f2d" stroke="#141f2d"></path><path d="M105.1 230L165.7 301L152.7 221Z" fill="#010713" stroke="#010713"></path><path d="M152.7 221L165.7 301L227.2 229Z" fill="#0e1520" stroke="#0e1520"></path><path d="M165.7 301L218.2 326L247.8 266Z" fill="#285877" stroke="#285877"></path><path d="M343.3 260L371.9 212L344.3 197Z" fill="#1e3549" stroke="#1e3549"></path><path d="M369.3 78L305.8 70L302.3 176Z" fill="#1e3549" stroke="#1e3549"></path><path d="M137.1 92L114.1 159L138.7 162Z" fill="#0e1520" stroke="#0e1520"></path><path d="M138.7 162L105.1 230L152.7 221Z" fill="#0e1520" stroke="#0e1520"></path><path d="M296.8 400L313.8 319L230.2 325Z" fill="#2a7196" stroke="#2a7196"></path><path d="M230.2 325L313.8 319L258.2 281Z" fill="#2a7196" stroke="#2a7196"></path><path d="M343.3 260L403.9 262L371.9 212Z" fill="#285877" stroke="#285877"></path><path d="M114.1 159L105.1 230L138.7 162Z" fill="#285877" stroke="#285877"></path><path d="M313.8 319L350.3 298L283.8 278Z" fill="#192a3b" stroke="#192a3b"></path><path d="M328.3 50L305.8 70L369.3 78Z" fill="#297ea6" stroke="#297ea6"></path><path d="M236.2 26L137.1 92L185.7 132Z" fill="#254c67" stroke="#254c67"></path><path d="M185.7 132L137.1 92L184.2 137Z" fill="#285877" stroke="#285877"></path><path d="M111.1 315L187.7 343L165.7 301Z" fill="#1e3549" stroke="#1e3549"></path><path d="M165.7 301L187.7 343L218.2 326Z" fill="#192a3b" stroke="#192a3b"></path><path d="M218.2 326L241.2 400L230.2 325Z" fill="#285877" stroke="#285877"></path><path d="M236.2 26L185.7 132L255.8 122Z" fill="#285877" stroke="#285877"></path><path d="M51.6 68L90.6 168L114.1 159Z" fill="#224058" stroke="#224058"></path><path d="M114.1 159L90.6 168L105.1 230Z" fill="#285877" stroke="#285877"></path><path d="M90.6 168L78.1 235L105.1 230Z" fill="#254c67" stroke="#254c67"></path><path d="M105.1 230L111.1 315L165.7 301Z" fill="#141f2d" stroke="#141f2d"></path><path d="M83.6 293L111.1 315L105.1 230Z" fill="#224058" stroke="#224058"></path><path d="M393.9 289L403.9 262L343.3 260Z" fill="#141f2d" stroke="#141f2d"></path><path d="M406.4 139L302.3 176L344.3 197Z" fill="#0e1520" stroke="#0e1520"></path><path d="M350.3 298L393.9 289L343.3 260Z" fill="#296486" stroke="#296486"></path><path d="M407.9 317L393.9 289L350.3 298Z" fill="#0e1520" stroke="#0e1520"></path><path d="M406.4 139L344.3 197L371.9 212Z" fill="#141f2d" stroke="#141f2d"></path><path d="M305.8 70L236.2 26L255.8 122Z" fill="#141f2d" stroke="#141f2d"></path><path d="M427.4 166L406.4 139L371.9 212Z" fill="#141f2d" stroke="#141f2d"></path><path d="M307.8 18L236.2 26L305.8 70Z" fill="#254c67" stroke="#254c67"></path><path d="M406.4 139L369.3 78L302.3 176Z" fill="#141f2d" stroke="#141f2d"></path><path d="M78.1 235L83.6 293L105.1 230Z" fill="#297ea6" stroke="#297ea6"></path><path d="M456.4 226L427.4 166L371.9 212Z" fill="#0e1520" stroke="#0e1520"></path><path d="M424.9 115L377.9 60L369.3 78Z" fill="#010713" stroke="#010713"></path><path d="M171.7 400L241.2 400L187.7 343Z" fill="#224058" stroke="#224058"></path><path d="M187.7 343L241.2 400L218.2 326Z" fill="#192a3b" stroke="#192a3b"></path><path d="M313.8 319L367.3 360L350.3 298Z" fill="#254c67" stroke="#254c67"></path><path d="M39.6 215L45.6 224L78.1 235Z" fill="#141f2d" stroke="#141f2d"></path><path d="M78.1 235L45.6 224L83.6 293Z" fill="#297ea6" stroke="#297ea6"></path><path d="M39.6 215L78.1 235L90.6 168Z" fill="#0e1520" stroke="#0e1520"></path><path d="M354.3 0L307.8 18L328.3 50Z" fill="#296486" stroke="#296486"></path><path d="M328.3 50L307.8 18L305.8 70Z" fill="#285877" stroke="#285877"></path><path d="M424.9 115L369.3 78L406.4 139Z" fill="#285877" stroke="#285877"></path><path d="M369.3 78L377.9 60L328.3 50Z" fill="#010713" stroke="#010713"></path><path d="M296.8 400L367.3 360L313.8 319Z" fill="#0e1520" stroke="#0e1520"></path><path d="M367.3 360L407.9 317L350.3 298Z" fill="#0e1520" stroke="#0e1520"></path><path d="M393.9 289L455.4 295L403.9 262Z" fill="#224058" stroke="#224058"></path><path d="M403.9 262L456.4 226L371.9 212Z" fill="#010713" stroke="#010713"></path><path d="M0 202L39.6 215L90.6 168Z" fill="#0e1520" stroke="#0e1520"></path><path d="M48.6 362L111.1 315L83.6 293Z" fill="#296486" stroke="#296486"></path><path d="M307.8 18L248.2 0L236.2 26Z" fill="#2a7196" stroke="#2a7196"></path><path d="M236.2 26L168.7 0L137.1 92Z" fill="#296486" stroke="#296486"></path><path d="M427.4 166L424.9 115L406.4 139Z" fill="#010713" stroke="#010713"></path><path d="M377.9 60L376.9 51L328.3 50Z" fill="#192a3b" stroke="#192a3b"></path><path d="M431.4 22L376.9 51L377.9 60Z" fill="#296486" stroke="#296486"></path><path d="M241.2 400L296.8 400L230.2 325Z" fill="#2a7196" stroke="#2a7196"></path><path d="M124.1 400L187.7 343L111.1 315Z" fill="#297ea6" stroke="#297ea6"></path><path d="M124.1 400L171.7 400L187.7 343Z" fill="#192a3b" stroke="#192a3b"></path><path d="M354.3 0L297.8 0L307.8 18Z" fill="#254c67" stroke="#254c67"></path><path d="M307.8 18L297.8 0L248.2 0Z" fill="#010713" stroke="#010713"></path><path d="M248.2 0L168.7 0L236.2 26Z" fill="#192a3b" stroke="#192a3b"></path><path d="M137.1 92L51.6 68L114.1 159Z" fill="#010713" stroke="#010713"></path><path d="M462.4 232L456.4 226L403.9 262Z" fill="#0e1520" stroke="#0e1520"></path><path d="M427.4 166L500 125L424.9 115Z" fill="#192a3b" stroke="#192a3b"></path><path d="M168.7 0L129.7 18L137.1 92Z" fill="#141f2d" stroke="#141f2d"></path><path d="M407.9 317L455.4 295L393.9 289Z" fill="#224058" stroke="#224058"></path><path d="M367.3 360L425.4 325L407.9 317Z" fill="#010713" stroke="#010713"></path><path d="M455.4 295L462.4 232L403.9 262Z" fill="#296486" stroke="#296486"></path><path d="M456.4 226L500 125L427.4 166Z" fill="#224058" stroke="#224058"></path><path d="M296.8 400L350.3 400L367.3 360Z" fill="#254c67" stroke="#254c67"></path><path d="M367.3 360L426.9 400L425.4 325Z" fill="#0e1520" stroke="#0e1520"></path><path d="M76.1 377L124.1 400L111.1 315Z" fill="#141f2d" stroke="#141f2d"></path><path d="M76.1 377L111.1 315L48.6 362Z" fill="#010713" stroke="#010713"></path><path d="M374.9 0L354.3 0L376.9 51Z" fill="#254c67" stroke="#254c67"></path><path d="M376.9 51L354.3 0L328.3 50Z" fill="#141f2d" stroke="#141f2d"></path><path d="M425.4 325L455.4 295L407.9 317Z" fill="#141f2d" stroke="#141f2d"></path><path d="M77.1 24L51.6 68L137.1 92Z" fill="#2a7196" stroke="#2a7196"></path><path d="M168.7 0L115.1 0L129.7 18Z" fill="#224058" stroke="#224058"></path><path d="M129.7 18L77.1 24L137.1 92Z" fill="#224058" stroke="#224058"></path><path d="M48.6 362L83.6 293L0 297Z" fill="#1e3549" stroke="#1e3549"></path><path d="M0 110L0 202L90.6 168Z" fill="#297ea6" stroke="#297ea6"></path><path d="M39.6 215L0 278L45.6 224Z" fill="#296486" stroke="#296486"></path><path d="M115.1 0L77.1 24L129.7 18Z" fill="#141f2d" stroke="#141f2d"></path><path d="M418.4 0L374.9 0L376.9 51Z" fill="#0e1520" stroke="#0e1520"></path><path d="M0 278L83.6 293L45.6 224Z" fill="#285877" stroke="#285877"></path><path d="M0 202L0 278L39.6 215Z" fill="#1e3549" stroke="#1e3549"></path><path d="M51.6 68L0 110L90.6 168Z" fill="#1e3549" stroke="#1e3549"></path><path d="M0 71L0 110L51.6 68Z" fill="#1e3549" stroke="#1e3549"></path><path d="M0 278L0 297L83.6 293Z" fill="#141f2d" stroke="#141f2d"></path><path d="M500 249L500 229L462.4 232Z" fill="#296486" stroke="#296486"></path><path d="M462.4 232L500 229L456.4 226Z" fill="#224058" stroke="#224058"></path><path d="M424.9 115L431.4 22L377.9 60Z" fill="#192a3b" stroke="#192a3b"></path><path d="M455.4 295L500 249L462.4 232Z" fill="#010713" stroke="#010713"></path><path d="M500 53L431.4 22L424.9 115Z" fill="#296486" stroke="#296486"></path><path d="M115.1 0L68.6 0L77.1 24Z" fill="#0e1520" stroke="#0e1520"></path><path d="M77.1 24L30.6 26L51.6 68Z" fill="#254c67" stroke="#254c67"></path><path d="M431.4 22L418.4 0L376.9 51Z" fill="#0e1520" stroke="#0e1520"></path><path d="M350.3 400L426.9 400L367.3 360Z" fill="#297ea6" stroke="#297ea6"></path><path d="M425.4 325L500 375L455.4 295Z" fill="#296486" stroke="#296486"></path><path d="M455.4 295L500 284L500 249Z" fill="#192a3b" stroke="#192a3b"></path><path d="M500 229L500 125L456.4 226Z" fill="#285877" stroke="#285877"></path><path d="M431.4 22L500 0L418.4 0Z" fill="#297ea6" stroke="#297ea6"></path><path d="M0 385L54.6 400L48.6 362Z" fill="#224058" stroke="#224058"></path><path d="M48.6 362L54.6 400L76.1 377Z" fill="#192a3b" stroke="#192a3b"></path><path d="M76.1 377L54.6 400L124.1 400Z" fill="#2a7196" stroke="#2a7196"></path><path d="M500 375L500 284L455.4 295Z" fill="#141f2d" stroke="#141f2d"></path><path d="M426.9 400L432.4 400L425.4 325Z" fill="#254c67" stroke="#254c67"></path><path d="M30.6 26L0 71L51.6 68Z" fill="#297ea6" stroke="#297ea6"></path><path d="M68.6 0L30.6 26L77.1 24Z" fill="#0e1520" stroke="#0e1520"></path><path d="M500 125L500 91L424.9 115Z" fill="#1e3549" stroke="#1e3549"></path><path d="M500 91L500 53L424.9 115Z" fill="#2a7196" stroke="#2a7196"></path><path d="M0 297L0 385L48.6 362Z" fill="#0e1520" stroke="#0e1520"></path><path d="M0 0L0 19L30.6 26Z" fill="#224058" stroke="#224058"></path><path d="M30.6 26L0 19L0 71Z" fill="#297ea6" stroke="#297ea6"></path><path d="M432.4 400L500 375L425.4 325Z" fill="#141f2d" stroke="#141f2d"></path><path d="M0 385L0 400L54.6 400Z" fill="#141f2d" stroke="#141f2d"></path><path d="M68.6 0L0 0L30.6 26Z" fill="#141f2d" stroke="#141f2d"></path><path d="M432.4 400L500 400L500 375Z" fill="#0e1520" stroke="#0e1520"></path><path d="M500 53L500 0L431.4 22Z" fill="#254c67" stroke="#254c67"></path></g></svg>