<?xml version="1.0" encoding="UTF-8"?>
<svg id="Capa_1" data-name="Capa 1" xmlns="http://www.w3.org/2000/svg" xmlns:xlink="http://www.w3.org/1999/xlink" viewBox="0 0 128 128">
  <defs>
    <style>
      .cls-1 {
        fill: url(#Degradado_sin_nombre_82);
      }

      .cls-2 {
        fill: url(#Degradado_sin_nombre_82-3);
      }

      .cls-3 {
        fill: url(#Degradado_sin_nombre_82-2);
      }
    </style>
    <linearGradient id="Degradado_sin_nombre_82" data-name="Degradado sin nombre 82" x1="32" y1="0" x2="32" y2="128" gradientUnits="userSpaceOnUse">
      <stop offset="0" stop-color="#1a1a1a"/>
      <stop offset="1" stop-color="#4d4d4d"/>
    </linearGradient>
    <linearGradient id="Degradado_sin_nombre_82-2" data-name="Degradado sin nombre 82" x1="96" y1="128" x2="96" y2="0" xlink:href="#Degradado_sin_nombre_82"/>
    <linearGradient id="Degradado_sin_nombre_82-3" data-name="Degradado sin nombre 82" x1="76.44" y1="42.49" x2="51.25" y2="86.12" xlink:href="#Degradado_sin_nombre_82"/>
  </defs>
  <g>
    <path class="cls-1" d="M64,0v32.72c-3.17,0-6.23.47-9.11,1.35-2.14.65-4.18,1.52-6.09,2.59-5.08,2.84-9.3,7.05-12.13,12.13-1.07,1.92-1.94,3.96-2.59,6.1-.88,2.88-1.35,5.94-1.35,9.11s.47,6.23,1.35,9.11c.65,2.14,1.52,4.18,2.59,6.1,2.83,5.08,7.05,9.3,12.13,12.13,1.91,1.07,3.95,1.94,6.09,2.59,2.88.88,5.94,1.35,9.11,1.35v32.71c-.41,0-.83-.25-.95-.74l-4.65-19c-8.41-1.06-16.1-4.46-22.38-9.53l-12.87,7.43c-.84.48-1.77-.45-1.29-1.29l7.43-12.87c-5.07-6.28-8.47-13.98-9.53-22.39L.74,64.95c-.99-.24-.99-1.66,0-1.9l19.01-4.65c1.05-8.42,4.46-16.11,9.53-22.39l-7.43-12.87c-.48-.83.45-1.77,1.29-1.29l12.86,7.43c6.28-5.07,13.97-8.47,22.38-9.53L63.05.74c.12-.5.54-.74.95-.74Z"/>
    <path class="cls-3" d="M127.26,64.95l-18.98,4.65c-1.05,8.42-4.46,16.12-9.53,22.4l7.43,12.86c.48.84-.45,1.77-1.29,1.29l-12.87-7.43c-6.29,5.08-13.99,8.48-22.41,9.53l-4.65,19c-.12.5-.54.74-.95.74v-32.71h.01c3.16,0,6.22-.47,9.09-1.34,2.15-.65,4.2-1.53,6.12-2.6,5.08-2.83,9.3-7.05,12.13-12.13,1.07-1.92,1.94-3.97,2.59-6.11.88-2.88,1.35-5.94,1.35-9.11s-.47-6.22-1.35-9.1c-.65-2.14-1.52-4.19-2.59-6.11-2.84-5.08-7.05-9.3-12.13-12.13-1.92-1.07-3.97-1.95-6.12-2.6-2.88-.88-5.93-1.34-9.09-1.34h-.01V0c.41,0,.83.25.95.74l4.65,19c8.42,1.05,16.12,4.45,22.41,9.53l12.87-7.43c.83-.48,1.77.45,1.29,1.29l-7.43,12.87c5.07,6.29,8.48,13.98,9.53,22.4l18.98,4.65c.99.24.99,1.66,0,1.9Z"/>
  </g>
  <path class="cls-2" d="M68.85,76.84h.63c1.96,0,3.55-.44,4.77-1.33,1.13-.82,1.95-2.23,2.47-4.21.07-.28.34-.48.63-.48,2.86.08,5.26.16,7.19.24.38.02.66.37.59.75-.65,3.58-1.49,6.69-2.52,9.34-.09.24-.33.4-.59.4h-38.55c-.48,0-.78-.52-.55-.94,5.97-10.58,12.47-20.03,19.52-28.38.32-.38.1-.96-.39-1.02-.97-.12-2.14-.17-3.52-.17-1.96,0-3.74.6-5.33,1.79-1.45,1.09-2.42,2.5-2.89,4.23-.08.29-.35.49-.65.47-2.64-.17-4.52-.3-5.65-.4-.37-.03-.63-.38-.56-.75l1.93-9.4c.06-.29.32-.5.61-.5h37.15c.54,0,.82.64.46,1.04-7.68,8.48-14.42,17.77-20.21,27.86-.22.38.01.86.44.94,2.03.36,3.7.54,5.01.54Z"/>
</svg>