<?xml version="1.0" encoding="UTF-8"?>
<svg id="Capa_1" data-name="Capa 1" xmlns="http://www.w3.org/2000/svg" viewBox="0 0 2981.27 526.95">
  <path fill="var(--color-primary-300)" d="M270.95,286.25l-88.59,151.36c-.91,1.56-2.58,2.51-4.38,2.51h-100.35c-3.89,0-6.35-4.24-4.44-7.64,58.03-103.09,121.36-195.14,190.01-276.23,2.58-3.05.85-7.74-3.11-8.26-9.64-1.26-21.57-1.91-35.73-1.91-18.89,0-36.04,5.69-51.37,17.25-14.19,10.62-23.59,24.47-28.11,41.46-.63,2.37-2.83,4.01-5.27,3.85-26.7-1.72-45.44-3.07-56.24-3.96-3.03-.25-5.16-3.1-4.54-6.08l18.94-92.41c.48-2.36,2.56-4.06,4.98-4.06h230.71c3.81,0,6.27,4.05,4.5,7.43l-84.37,161.59c-1.77,3.38.69,7.43,4.5,7.43h8.49c3.92,0,6.37,4.26,4.38,7.65Z"/>
  <path fill="var(--color-content-300)" d="M862.49,168.12c3.25,0,5.94,2.53,6.11,5.78,1.16,22.15,1.75,52.93,1.75,92.36,0,42.09-2.65,86.91-7.95,134.46-.21,1.9-1.28,3.65-2.9,4.66-35.39,22.05-77.52,33.07-126.39,33.07-65.12,0-118.04-11.05-158.76-33.14-1.78-.97-2.96-2.77-3.2-4.79-4.23-36.15-6.35-71.23-6.35-105.27s2.4-74.24,7.2-121.56c.32-3.13,2.97-5.58,6.12-5.58h126.47c3.81,0,6.65,3.46,5.98,7.2-12.77,71.27-19.57,139.87-20.41,205.79-.02,1.87.76,3.7,2.21,4.89,14.38,11.84,34.52,17.75,60.42,17.75s45.59-4.26,59.94-12.79c1.74-1.03,2.79-2.87,2.9-4.9.57-11.19.86-26.52.86-46.02,0-52.4-4.47-107.36-13.38-164.86-.57-3.7,2.26-7.07,6.01-7.07h53.38Z"/>
  <path fill="var(--color-content-300)" d="M1220.31,168.12c2.67,0,4.89,2.05,5.03,4.72,1.9,34.85,2.84,71.51,2.84,109.98s-1.63,85.56-4.89,139.46c-.16,2.65-2.36,4.77-5.02,4.77h-43.69c-.85,0-1.69-.21-2.45-.61-62.5-33.67-120.17-78.63-173.02-134.89-3.3-3.51-9.06-.93-8.61,3.86,1.71,18.39,2.56,37.15,2.56,56.29,0,22.85-.76,46.39-2.28,70.6-.17,2.65-2.38,4.75-5.04,4.75h-50.02c-3.07,0-5.39-2.78-4.91-5.82,6.28-40.24,9.43-77.57,9.43-112s-1.68-63.69-5.01-84.66c-.11-.72-.39-1.39-.79-1.99-11.48-17.27-20.9-32.96-28.27-47.09-1.75-3.36.64-7.38,4.43-7.38h136.09c1.75,0,3.34.9,4.24,2.41,14.36,24.11,33.65,48.94,57.88,74.5,22.13,23.36,43.39,42.19,63.77,56.5,3.32,2.33,7.94-.22,7.88-4.27-.65-44.23-5.78-85.2-15.39-122.93-.81-3.17,1.54-6.21,4.81-6.21h50.41Z"/>
  <path fill="var(--color-content-300)" d="M1297.06,271.69c0-34.94,3.04-68.26,9.14-100,.4-2.08,2.24-3.57,4.35-3.57h277.6c3.02,0,5.19,3.01,4.18,5.86-14.92,42.23-41.15,73.84-78.67,94.83-3.22,1.8-2.72,6.51.71,7.85,34.69,13.54,62.92,31.58,84.69,54.1.93.96,1.39,2.31,1.25,3.64-3.12,30.38-10.12,60.29-20.97,89.75-.64,1.74-2.32,2.91-4.18,2.91h-254.03c-1.98,0-3.74-1.31-4.28-3.22-13.2-47.08-19.8-97.79-19.8-152.14ZM1432.11,393.36c19.38-.21,35.68-1.77,48.88-4.7,2.3-.51,3.75-2.83,3.32-5.15-6.26-33.37-21.49-58.98-45.69-76.85-2.79-2.06-6.8-.38-7.13,3.08-2.48,26.65-3.79,53.04-3.92,79.17-.01,2.46,2.08,4.48,4.54,4.45ZM1437.41,259.58c-.49,3.2,2.58,5.96,5.65,4.96,14.38-4.64,27.86-11.75,40.43-21.33,12.55-9.56,22-21.06,28.34-34.5,1.4-2.97-.71-6.41-4-6.4-22.93.12-42.05.88-57.38,2.26-1.94.18-3.48,1.6-3.87,3.51-3.42,16.8-6.48,33.97-9.17,51.49Z"/>
  <path fill="var(--color-content-300)" d="M1835.64,272.21l48.68,3.11c4.83,0,8.45-.17,10.88-.52l-24.34,45.57h-4.66c-6.56,0-15.88-1.82-27.96-5.44-12.09-3.63-20.71-5.44-25.89-5.44-13.94,0-25.02,8.87-33.26,26.59-.26.55-.42,1.18-.47,1.78-1.24,15.24-2.19,30.49-2.86,45.72-.1,2.36,1.62,4.46,3.94,4.89,16.01,2.94,28.8,4.4,38.35,4.4h4.66c14.84,0,26.67-3.27,35.47-9.83,8.14-6.06,14.13-16.55,18-31.45.56-2.15,2.5-3.69,4.72-3.6l52.91,2.2c2.86.12,4.97,2.81,4.45,5.62-4.81,26.07-11.01,48.83-18.57,68.28-.71,1.82-2.46,2.97-4.41,2.97h-246.93c-2.35,0-4.36-1.74-4.7-4.07-6.51-45.23-9.76-90.13-9.76-134.72s2.23-82.82,6.69-116.11c.31-2.34,2.32-4.04,4.68-4.04h267.89c2.91,0,5.12,2.67,4.63,5.54-5.43,31.98-10.33,55.33-14.68,70.05-.56,1.91-2.33,3.2-4.31,3.3-16.53.81-31.9,1.41-46.11,1.76-3.06.08-5.44-2.8-4.64-5.76,1.54-5.74,2.32-11.2,2.32-16.37,0-16.57-12.43-24.85-37.29-24.85-8.45,0-17.75.85-27.9,2.55-1.89.32-3.46,1.82-3.89,3.68-6.07,26.38-11,50.15-14.8,71.31-.75,4.16,3.83,6.96,7.36,4.64,11.93-7.83,25.87-11.76,41.82-11.76Z"/>
  <path fill="var(--color-content-300)" d="M2156.71,392.87c14.84,0,26.67-3.36,35.48-10.09,8.26-6.32,14.47-16.97,18.63-31.96.48-1.72,2.05-2.95,3.83-2.89l54.64,1.82c2.36.08,4.11,2.28,3.7,4.61-4.88,27.9-11.21,51.34-18.96,70.32-.6,1.47-2.03,2.38-3.61,2.38h-248.27c-1.94,0-3.59-1.42-3.87-3.33-6.24-43.16-9.35-87.79-9.35-133.9s2.26-85.22,6.79-118.38c.26-1.93,1.92-3.31,3.86-3.31h140.77c2.53,0,4.35,2.42,3.72,4.87-21.56,83.64-32.86,153.97-33.9,211.01-.03,1.86,1.3,3.49,3.12,3.89,15.08,3.33,29.56,4.98,43.44,4.98Z"/>
  <path fill="var(--color-content-300)" d="M2464.05,201.9c-2.49-.14-4.7,1.77-5.1,4.23-8.51,52.57-12.75,95.66-12.75,129.25s1.2,61.01,3.61,86.32c.28,2.9-1.98,5.34-4.89,5.34h-103.42c-2.35,0-4.4-1.64-4.88-3.94-11.19-53.78-16.78-111.5-16.78-173.16,0-9.47.27-23.15.81-41.02.11-3.58-3.49-6.04-6.83-4.77-23.97,9.16-39.27,26.86-45.87,53.13-.58,2.32-2.67,3.95-5.06,3.8l-41.45-2.51c-3-.18-5.15-2.98-4.54-5.93l16.67-80.59c.47-2.29,2.49-3.94,4.84-3.94h334.41c3.09,0,5.43,2.88,4.86,5.92-6.32,33.56-13.48,61.52-21.47,83.87-.74,2.07-2.76,3.34-4.96,3.21l-42.97-2.55c-2.97-.18-4.97-2.92-4.48-5.86.61-3.68.92-7.37.92-11.05,0-13.46-4.14-23.47-12.43-30.04-7.37-5.83-16.78-9.07-28.24-9.71Z"/>
  <path fill="var(--color-content-300)" d="M2785.39,392.35h4.66c14.5,0,26.23-3.28,35.21-9.84,8.31-6.07,14.4-16.43,18.27-31.07.55-2.08,2.47-3.58,4.63-3.52,21.14.58,38.85,1.17,53.12,1.75,2.81.11,4.86,2.76,4.35,5.52-4.82,26.44-11.03,49.43-18.62,68.94-.69,1.79-2.42,2.92-4.34,2.92h-284.58c-3.54,0-5.78-3.86-4.04-6.95,44.07-78.08,92.09-147.92,144.1-209.52,2.35-2.79.76-7.09-2.87-7.52-7.13-.86-15.8-1.29-26.02-1.29-14.5,0-27.63,4.4-39.36,13.2-10.72,8.03-17.83,18.44-21.35,31.22-.59,2.14-2.59,3.63-4.81,3.48-19.5-1.28-33.4-2.25-41.7-2.92-2.76-.22-4.67-2.82-4.12-5.53l14.25-69.42c.44-2.15,2.33-3.69,4.53-3.69h274.27c4.01,0,6.08,4.72,3.39,7.69-56.72,62.64-106.47,131.19-149.23,205.66-1.59,2.77.07,6.35,3.22,6.9,14.99,2.66,27.33,3.98,37.03,3.98Z"/>
  <path fill="var(--color-primary-300)" d="M522.45,327.5c-6.4,35.71-14.69,66.59-24.95,92.72-.68,1.73-2.36,2.84-4.22,2.84H230.23c-3.48,0-5.64-3.77-3.88-6.77l86.61-147.97c1.76-3-.41-6.77-3.88-6.77h-10.46c-3.38,0-5.55-3.59-3.99-6.58l87.43-167.45c.78-1.49,2.31-2.42,3.99-2.42h120.42c3.9,0,5.91,4.59,3.29,7.48-75.43,83-141.57,173.97-198.16,272.91-1.54,2.7.09,6.18,3.15,6.73,20.53,3.73,37.32,5.56,50.45,5.56h6.07c18.98,0,34.31-4.24,45.97-12.82,11.11-8.1,19.12-22.05,24.19-41.76.52-2.03,2.4-3.49,4.5-3.44,29.03.77,53.1,1.61,72.29,2.39,2.73.11,4.7,2.67,4.22,5.36Z"/>
</svg>