<svg width="148" height="147" viewBox="0 0 148 147" fill="none" xmlns="http://www.w3.org/2000/svg">
<path d="M73.7537 126.73C103.273 126.73 127.204 102.8 127.204 73.28C127.204 43.7604 103.273 19.83 73.7537 19.83C44.234 19.83 20.3037 43.7604 20.3037 73.28C20.3037 102.8 44.234 126.73 73.7537 126.73Z" fill="white"/>
<path d="M73.5537 118.62C98.6992 118.62 119.084 98.2355 119.084 73.09C119.084 47.9445 98.6992 27.56 73.5537 27.56C48.4081 27.56 28.0237 47.9445 28.0237 73.09C28.0237 98.2355 48.4081 118.62 73.5537 118.62Z" fill="#E0E8BF"/>
<path d="M95.2037 70.13L92.1037 66.27L89.3937 60.85L88.6237 56.59L87.4637 53.5L83.5937 49.24L77.0337 46.15L73.1637 42.66L72.2237 41.5L70.4337 40.34H68.2237L66.9537 39L66.1837 38L64.2437 39L60.3837 41.13L55.9737 39C56.1237 39.19 50.7037 41.51 50.7037 41.51L48.0337 43.82L46.8737 44.6L41.8737 43.44L39.7837 42.63C38.4316 44.1089 37.1789 45.6757 36.0337 47.32L36.4237 49.63L35.3337 53.31L33.3337 55.43L32.1337 57.75L34.6537 58.89V61.72L37.9337 64.72L38.3537 66.85L39.2937 67.92H42.3937L47.6137 71.68L52.6137 70.91L56.0937 74.39L58.0337 76.32L60.7637 79C61.1537 79.39 64.2437 81.71 64.2437 81.71L68.5037 80.55L69.6637 82.1L73.5337 83.26L76.6337 82.87L77.7937 81.71L80.1137 82.49L87.1137 82.87L88.6237 81H92.4937C92.4937 81 95.2037 81.38 95.5837 81.77C96.4013 82.3434 97.2566 82.8612 98.1437 83.32H100.904L101.784 82.16L95.5837 75.16L95.2037 70.13Z" fill="#F2F2F2"/>
<path d="M41.3637 40.89C40.3637 41.89 39.3637 43.02 38.3637 44.14L39.3637 44.4C39.8787 45.014 40.3216 45.6851 40.6837 46.4C40.6837 46.73 41.3337 50.68 41.3337 50.68H42.1437L42.6537 49.36V46.76L43.3137 44.4L44.6237 43.09L45.9437 43.74H48.9437L49.5937 42.1L50.5937 43.42L51.9037 42.76L52.9037 41.44L54.2237 41.77L55.4437 40.43L56.1937 42.43V44.07H57.1937L57.5237 41.44L58.6737 40.17L60.7937 40.79L61.1437 44.73V52.65L61.4737 53.65V54.52L61.9637 54.85L62.4537 53.65V50.29L62.7837 49.66V48.66L63.4437 48V49L64.1037 51.61V52.77L63.7737 54.24L64.1037 55.24V56.38L63.7737 57.82L64.1037 58.39L64.4337 59.46L64.1037 60.12L64.7637 60.78V61.51L65.0837 62.42L65.7437 62.75L66.1737 63.56L66.2337 64.7L67.0637 65.38L68.3737 65.05L68.7037 63.41V60.66L69.3637 58.54L69.6937 56.54L70.3437 54.54L70.6737 51.54L71.3337 49.54L72.3337 48.23L72.6637 46.58L73.3137 45.93H73.9737L74.3037 47.57L74.6237 49L74.2937 51.31L74.6237 52.18L75.2837 51.96L75.9337 50.32L75.6037 48L76.2637 45.7L76.5937 45.04L79.2237 44.04L80.5437 44.37L81.1937 45.37L82.5137 44.05L83.8237 43.72L84.4837 44.72L85.4837 44.39L87.7837 43.39L88.1137 44.04L90.4137 44.37L91.0737 44.04L93.0737 42.4L94.3837 40.76L96.0337 39.47L98.5737 35C89.8152 29.2514 79.3426 26.6984 68.9212 27.7713C58.4999 28.8442 48.7671 33.4775 41.3637 40.89Z" fill="#9EAA6B"/>
<path d="M105.754 105.29C107.186 103.852 108.522 102.322 109.754 100.71L109.234 100.14L106.504 101.93L104.854 102.93L103.854 103.26L101.544 104.57L99.9037 104.24L98.2637 107.24L95.8237 109.87H91.3837L88.0337 109.16L87.0937 108.16L77.5637 107.16L76.2437 105.85V102.85L75.9137 98.57L75.2637 97.23V95.69L74.2637 92.69L73.2637 91.37L72.6137 90.37L72.0337 88.79V87.79L70.7137 85.79L70.3837 85.05L70.0337 83.66L70.3437 81.96V77.96L70.0337 75.46L69.7037 74.65L70.0337 73.57V72L69.0337 69.7L67.7137 67.7L66.7137 68.03L65.7137 69.5V79.91L65.0537 80.91V86.14L64.4037 86.47L63.1137 87.8L62.1137 88.8L61.8037 92.51L62.4337 95.38L61.8037 97.19V100.19L58.6537 100.61L57.1737 100.01L55.5337 98.01L52.2437 96.01L50.6037 93.71L49.9437 90.71C49.9437 90.71 48.9437 87.43 48.9437 87.1C48.9437 86.77 46.6337 85.78 46.6337 85.78L45.3237 83.48L45.0337 81.88L43.3937 79.25L42.2237 78.58V72.66L41.7437 69.72L41.0937 66.72L39.7737 67.05L38.7737 69.26V71.48L37.7737 72.96L38.7737 74.03V77.6L37.7737 80.23L36.4537 81.55L35.1137 81.09V78.51C34.5649 77.7444 34.1397 76.8974 33.8537 76C33.8537 75.34 33.2037 76.33 33.2037 76.33L32.8737 77.97L31.5537 79.62L30.2437 79.95H28.5337C29.7967 88.278 33.3446 96.0925 38.7831 102.525C44.2216 108.957 51.3374 113.755 59.3394 116.385C67.3415 119.015 75.9162 119.374 84.1102 117.422C92.3042 115.471 99.7963 111.285 105.754 105.33V105.29Z" fill="#9EAA6B"/>
<path d="M117.354 60.62L117.284 60.83L116.094 68.61L113.334 74.61L111.774 76.07L110.624 74.71V71.92L109.864 70L109.094 69.16L107.544 71.25V76.8L107.144 80.07L105.584 83.71L103.644 86.27L102.854 90.27L101.684 93.55L100.134 92.82L98.5837 94.65L97.7937 97.2L95.7937 103.75L93.0337 107L91.6737 103.8L90.3337 100.97H85.3337L76.3337 99.34L73.8637 96.94L70.8637 98.59L65.7937 98.17L65.3937 97.83L63.1737 95L64.1737 92.51L63.6537 90.24V89.87L63.8437 86.58L63.3237 84.43L59.0337 83.94L57.5837 85.48L55.6937 86.33L54.6937 88.58L53.6437 90.46L52.3537 94.55L52.8437 96.34L49.8437 97.98L48.7537 99.14L45.4437 103L42.1737 106.09C49.4109 112.97 58.7087 117.28 68.6358 118.357C78.5629 119.435 88.5689 117.219 97.1136 112.053C105.658 106.886 112.268 99.0538 115.925 89.7623C119.582 80.4708 120.084 70.2348 117.354 60.63V60.62Z" fill="#1A1A1A"/>
<path d="M73.5337 100.15L74.4137 97.68L75.6537 95.22L76.7037 92.57L78.4637 90.28L80.4037 87.29L80.7537 85.53V83.08V82.38V81.78L79.1737 82L78.2937 80.95L78.4637 79.71L78.6437 77.07L79.1737 74.43L80.2337 73.2L82.5237 71.96H82.9737V70.21L82.3437 69.67L81.9937 68.79L81.9037 67.92L81.6537 67.67L81.9937 66.5L82.9737 65.47H85.1137L86.2237 66.33L86.5737 67.56V68.49V69.42L86.0437 69.5L85.8637 70.2L85.6937 71.26L85.8637 71.96L87.4537 72.49L89.3937 73.9L89.9137 75.31L90.2737 77.6V79.82L89.9137 82.53L88.8637 83.24L89.2137 84.65L89.3937 86.06V88.52L89.2137 90.99L88.6837 93.28L88.5037 96.8L88.7837 99.97L88.8637 102.61L85.5137 102.44L85.3337 98.39L85.2537 92.02L84.8137 91.52L83.4437 92.02L80.5837 93.63L79.1737 95.57L77.9437 97.68L76.8837 101.03L76.1737 102.26L73.5337 100.15Z" fill="#1A1A1A"/>
<path d="M39.0937 43.33L39.3637 44.11L40.4137 44.76H41.1037L43.2037 44.42L44.9537 43.42L45.9537 44.42L46.2937 46.42L46.6337 48.71L46.9737 49.36L47.3237 51.36V52.44L47.6737 53.33H48.0337L48.7337 52.68V48.52L49.7837 46.69L50.1437 45.05L50.8437 44.05L51.5337 45.68L51.8737 47.98L52.5637 48.98H53.2637L53.6237 47.34L54.0337 44.38L55.4337 42.74L56.1437 39.46L57.8937 37.81L61.0337 37.14L63.1237 38.45L65.5637 36.8L73.2437 34.8L75.6837 35.45L77.7737 36.75L81.2437 39.69H82.6437L84.7337 39.35L86.4737 40.35L86.8237 41.35L89.6037 42.35L92.7437 42.67L95.8737 45.28L96.8737 47.57L96.5137 52.16L96.8537 53.95V56.41L97.1937 57.41H98.1937L98.8937 55.41L99.6037 53.41L101.004 53.08L101.344 53.73V60.6L101.694 62.6L102.034 64.6V65.48L102.734 65.26L103.094 63.62V60.9L103.454 57.96V55.71L103.834 54L104.894 51.7L105.254 49.08L106.644 48.74L108.034 51.06L108.364 55.98L108.704 58.27L109.394 59.58L110.784 59.25V56L111.134 53.69L112.194 51.69L114.304 53V54.36L115.194 54.59C112.188 47.8377 107.586 41.9178 101.782 37.3411C95.9788 32.7645 89.1491 29.6684 81.8823 28.3199C74.6154 26.9715 67.1296 27.4112 60.0706 29.6011C53.0116 31.791 46.5914 35.6654 41.3637 40.89C40.5737 41.68 39.8137 42.5 39.0937 43.33Z" fill="#1A1A1A"/>
<path d="M73.5537 28.33C83.9091 28.33 93.9443 31.9205 101.949 38.4899C109.954 45.0593 115.433 54.2011 117.454 64.3576C119.474 74.514 117.91 85.0568 113.029 94.1896C108.147 103.322 100.25 110.48 90.6829 114.443C81.1157 118.406 70.4705 118.929 60.5609 115.923C50.6513 112.917 42.0906 106.568 36.3374 97.9575C30.5842 89.3472 27.9944 79.0085 29.0094 68.7029C30.0244 58.3973 34.5813 48.7624 41.9037 41.44C46.0491 37.2689 50.9813 33.9623 56.4143 31.7119C61.8473 29.4614 67.673 28.3119 73.5537 28.33ZM73.5537 27.55C63.0177 27.5492 52.8074 31.2017 44.6626 37.8851C36.5177 44.5685 30.9422 53.8692 28.886 64.2026C26.8299 74.536 28.4203 85.2626 33.3863 94.5548C38.3523 103.847 46.3867 111.13 56.1204 115.162C65.8541 119.195 76.6849 119.728 86.7674 116.67C96.8498 113.612 105.56 107.153 111.414 98.3928C117.268 89.6328 119.903 79.114 118.871 68.6287C117.839 58.1434 113.203 48.3404 105.754 40.89C101.53 36.6545 96.5111 33.2955 90.9851 31.0061C85.4591 28.7168 79.5351 27.5422 73.5537 27.55Z" fill="#1A1A1A"/>
<path d="M68.3637 19.83H73.7537V0L68.3637 19.83Z" fill="#1A1A1A"/>
<path d="M79.1437 19.83H73.7537V0L79.1437 19.83Z" fill="#6E8C03"/>
<path d="M127.204 67.89V73.28H147.034L127.204 67.89Z" fill="#1A1A1A"/>
<path d="M127.204 78.67V73.28H147.034L127.204 78.67Z" fill="#6E8C03"/>
<path d="M79.1437 126.73H73.7537V146.56L79.1437 126.73Z" fill="#1A1A1A"/>
<path d="M68.3637 126.73H73.7537V146.56L68.3637 126.73Z" fill="#6E8C03"/>
<path d="M20.3037 78.67V73.28H0.473663L20.3037 78.67Z" fill="#1A1A1A"/>
<path d="M20.3037 67.89V73.28H0.473663L20.3037 67.89Z" fill="#6E8C03"/>
<path d="M73.7537 126.62C103.213 126.62 127.094 102.739 127.094 73.28C127.094 43.8211 103.213 19.94 73.7537 19.94C44.2948 19.94 20.4137 43.8211 20.4137 73.28C20.4137 102.739 44.2948 126.62 73.7537 126.62Z" stroke="#1A1A1A" stroke-width="9.69" stroke-miterlimit="10"/>
<path d="M73.7637 28.25C78.3421 28.25 82.0537 24.5384 82.0537 19.96C82.0537 15.3816 78.3421 11.67 73.7637 11.67C69.1852 11.67 65.4737 15.3816 65.4737 19.96C65.4737 24.5384 69.1852 28.25 73.7637 28.25Z" fill="white" stroke="#1A1A1A" stroke-width="1.95" stroke-miterlimit="10"/>
<path d="M77.0337 24.81C76.8637 24.81 76.7137 24.81 76.4237 24.43L72.2137 19.43V24.37C72.2137 24.64 72.0937 24.79 71.8937 24.79H70.5037C70.2937 24.79 70.1737 24.64 70.1737 24.37V14.86C70.1737 14.59 70.2337 14.43 70.4737 14.43C70.5586 14.4322 70.6421 14.453 70.7181 14.491C70.7942 14.5291 70.8609 14.5833 70.9137 14.65L75.2637 19.88V14.88C75.2637 14.61 75.3837 14.45 75.5837 14.45H76.9437C77.1537 14.45 77.2737 14.61 77.2737 14.88V24.4C77.2737 24.67 77.1837 24.81 77.0337 24.81Z" fill="#1A1A1A"/>
</svg>
